<svg version="1.1" id="Layer_1" xmlns="http://www.w3.org/2000/svg" xmlns:xlink="http://www.w3.org/1999/xlink" x="0px" y="0px" width="100%" viewBox="0 0 3024 1052" enable-background="new 0 0 3024 1052" xml:space="preserve">
<path fill="none" opacity="1.000000" stroke="none" d=" M1876.000000,1053.000000   C1250.666626,1053.000000 625.833313,1053.000000 1.000000,1053.000000   C1.000000,702.333313 1.000000,351.666656 1.000000,1.000000   C1009.000000,1.000000 2017.000000,1.000000 3025.000000,1.000000   C3025.000000,351.666656 3025.000000,702.333313 3025.000000,1053.000000   C2642.166748,1053.000000 2259.333252,1053.000000 1876.000000,1053.000000  M1716.661743,418.002686   C1720.817261,417.335510 1724.998657,416.797974 1729.123901,415.978394   C1745.696167,412.685822 1762.101318,408.795258 1777.250732,400.964386   C1794.117432,392.245911 1805.820923,378.859680 1811.917969,360.933746   C1819.975586,337.242981 1825.114624,312.826782 1829.022339,288.133240   C1831.284668,273.836975 1836.924072,271.241943 1847.000122,272.062378   C1852.846069,272.538391 1858.667358,273.920563 1864.495972,273.898590   C1887.915894,273.810364 1911.337158,273.457916 1934.751587,272.922577   C1941.594238,272.766083 1948.443359,271.887695 1955.241211,270.979462   C1974.330200,268.429077 1991.731445,261.036652 2008.601196,252.120605   C2011.116333,250.791336 2012.577148,249.354401 2011.810059,246.415665   C2010.025391,239.578903 2008.040527,232.787262 2006.492676,225.897369   C2003.207642,211.276276 1999.998779,196.634460 1997.051636,181.942352   C1995.109863,172.262604 1993.155396,162.532959 1992.170654,152.728790   C1991.232910,143.390488 1989.674438,133.924179 1993.078613,124.570198   C1997.629517,112.065323 2004.181519,100.690689 2011.729858,89.831177   C2012.322266,88.978783 2013.416992,88.475517 2014.419189,87.701187   C2015.744995,90.147964 2016.876587,92.267456 2018.036621,94.371330   C2024.328979,105.784966 2030.628784,117.194557 2036.925293,128.605881   C2045.975220,145.007019 2053.647461,161.588440 2049.093994,181.287735   C2045.426270,197.153931 2042.723145,213.240677 2039.317627,229.170914   C2037.622681,237.099930 2041.638672,251.598740 2047.292236,255.710922   C2056.575439,262.463135 2066.651367,267.592438 2077.646484,271.050415   C2096.463135,276.968445 2116.025146,276.371582 2135.329346,277.914551   C2145.543213,278.730896 2155.834717,278.525757 2166.077881,279.041412   C2175.417725,279.511627 2184.770996,280.050110 2194.062256,281.068390   C2206.232910,282.402252 2217.615479,286.507751 2227.718994,293.375732   C2236.288330,299.201172 2244.414795,305.699036 2252.547363,312.138947   C2257.810303,316.306305 2263.076904,320.573181 2267.714111,325.398651   C2272.899902,330.795074 2277.464600,336.802826 2282.144775,342.667969   C2295.028564,358.813477 2308.229736,374.726166 2320.579834,391.272644   C2343.515381,422.001068 2366.310059,452.849060 2388.463623,484.142548   C2410.089844,514.691467 2431.174316,545.638550 2451.886719,576.815857   C2473.627441,609.541504 2494.266602,643.000305 2516.091309,675.668335   C2535.186523,704.251648 2555.081299,732.308289 2574.969482,760.351868   C2586.303467,776.333801 2598.044922,792.048035 2610.125244,807.473755   C2623.188232,824.154175 2636.687012,840.502930 2650.318848,856.724915   C2661.604736,870.155273 2672.909180,883.620728 2685.004639,896.308838   C2707.988037,920.418213 2731.907227,943.563232 2758.834717,963.389221   C2779.107422,978.315430 2799.976074,992.306824 2822.309326,1003.949097   C2833.981689,1010.033813 2845.886230,1015.749207 2857.997803,1020.896912   C2874.377197,1027.858276 2890.759277,1034.823608 2908.741211,1037.152222   C2921.809082,1038.844238 2934.645752,1038.185669 2947.272705,1035.158813   C2957.369141,1032.738647 2967.249023,1029.311646 2977.068848,1025.884033   C2982.493896,1023.990479 2987.597656,1021.175964 2992.846191,1018.776611   C2985.610596,1017.677734 2978.692871,1017.385925 2971.781738,1016.982605   C2967.527832,1016.734436 2963.201416,1016.728638 2959.049316,1015.902039   C2942.020508,1012.512207 2925.308350,1008.089783 2908.914795,1002.150940   C2878.196777,991.022949 2849.802979,975.562927 2822.450684,957.953613   C2799.152588,942.954468 2778.344238,924.842163 2758.461670,905.729004   C2744.988525,892.777283 2732.313721,878.961243 2719.746826,865.109680   C2705.757812,849.690247 2692.133057,833.931152 2678.658691,818.057556   C2668.329346,805.888672 2658.031738,793.645386 2648.513428,780.845215   C2630.757812,756.968445 2613.063721,733.014526 2596.298340,708.441528   C2577.879883,681.445435 2560.547119,653.709106 2542.725586,626.305664   C2520.332275,591.872131 2498.225586,557.246826 2475.410400,523.095337   C2461.324463,502.010742 2446.342041,481.513611 2431.407715,461.010712   C2416.813721,440.974884 2401.772461,421.264740 2386.922119,401.415833   C2375.277832,385.852417 2363.820801,370.144287 2351.926758,354.774078   C2337.332764,335.914642 2324.119873,315.906403 2306.271484,299.712952   C2294.809082,289.313263 2282.337646,280.443237 2268.804688,272.937469   C2251.348389,263.255798 2232.184326,260.641571 2212.803711,259.075500   C2199.664062,258.013733 2186.465332,257.683258 2173.294922,256.995422   C2160.957520,256.351105 2148.618408,255.728882 2136.286865,254.985382   C2118.718750,253.926178 2103.271729,248.125916 2091.756592,234.188187   C2086.940918,228.359329 2082.620361,221.828354 2084.190674,213.906311   C2085.774170,205.917526 2088.582764,198.164169 2090.976807,190.345062   C2094.852783,177.684891 2098.938232,164.877701 2096.834473,151.540741   C2094.105957,134.241623 2086.176270,118.617371 2078.445312,103.149330   C2071.556152,89.365829 2063.160156,76.341370 2056.079346,62.645752   C2050.040527,50.964973 2044.888306,38.823368 2039.430176,26.846355   C2038.101440,23.930786 2037.258301,22.280687 2033.068726,23.750856   C2025.977905,26.239182 2018.426147,27.465818 2011.020630,28.992491   C2001.478760,30.959570 1995.116943,35.320000 1991.501099,45.452305   C1984.822632,64.166008 1977.352417,82.610168 1964.432373,98.447777   C1953.918945,111.335274 1947.447998,126.594978 1946.103027,143.381073   C1944.623657,161.845322 1946.858276,180.221878 1950.285400,198.301468   C1953.275635,214.076157 1957.829224,229.552277 1961.508667,245.203369   C1961.761108,246.277222 1960.667358,248.680252 1959.884766,248.831223   C1950.042358,250.729233 1940.195068,253.079880 1930.240845,253.783127   C1920.727661,254.455215 1911.076660,253.516479 1901.507690,252.932495   C1895.501099,252.565903 1889.551514,251.187393 1883.545776,250.900360   C1872.631592,250.378769 1861.507568,248.978928 1850.817749,250.454803   C1839.329834,252.040817 1828.414917,256.697754 1818.198853,262.864746   C1801.810669,272.757507 1789.048462,285.166382 1783.951416,304.352478   C1778.393921,325.271790 1774.649658,346.724121 1765.993530,366.756531   C1760.927612,378.480469 1753.362671,388.330536 1741.638306,393.557770   C1725.010986,400.971039 1706.892944,402.544464 1689.011108,403.822235   C1671.458374,405.076447 1654.048462,402.412201 1636.783691,399.058289   C1623.767578,396.529694 1610.709351,394.193420 1597.623413,392.055664   C1584.168823,389.857697 1570.703125,386.804138 1557.160400,386.293762   C1538.863525,385.604309 1520.426392,384.731384 1502.159180,387.957977   C1484.145752,391.139709 1466.038086,393.794464 1448.041504,397.064056   C1433.505127,399.705017 1421.706909,406.992615 1412.961914,419.134094   C1398.819214,438.769867 1401.672852,460.855194 1403.368164,482.846558   C1403.837891,488.940186 1404.073975,495.095825 1403.712646,501.181213   C1403.611816,502.880249 1401.275513,504.907684 1399.481689,505.964050   C1392.295288,510.195862 1384.595947,509.296143 1376.728027,508.089050   C1352.707031,504.403687 1335.128418,491.547424 1321.806885,471.593597   C1311.477783,456.121826 1302.756958,439.861511 1295.455078,422.832489   C1288.448853,406.493042 1281.179932,390.205017 1275.371582,373.428680   C1268.094727,352.411774 1265.658813,330.282166 1265.216797,308.177429   C1264.837402,289.193878 1266.010864,270.154114 1267.115967,251.175201   C1267.826416,238.974854 1269.659180,226.840012 1270.982300,214.675079   C1271.363647,211.169724 1271.722778,207.661926 1272.090332,204.173294   C1268.565796,204.502975 1265.641357,204.657059 1262.753174,205.067825   C1251.504150,206.667755 1240.280518,208.454956 1229.014282,209.917877   C1226.520264,210.241745 1225.367920,210.595520 1224.884399,213.488571   C1222.807739,225.912170 1220.474243,238.298508 1217.952271,250.640762   C1213.755005,271.180756 1209.356934,291.679840 1205.014282,312.190002   C1200.607178,333.004852 1196.879883,353.997345 1191.553711,374.575226   C1185.125854,399.408966 1177.583618,423.966461 1170.060913,448.501556   C1160.190552,480.692841 1148.935181,512.385742 1135.408569,543.272156   C1125.841309,565.117798 1115.627319,586.614685 1102.130371,606.290894   C1088.247925,626.528870 1073.587891,646.233398 1058.673218,666.999695   C1073.835815,666.999695 1089.182251,667.012939 1104.528687,666.966064   C1105.429932,666.963318 1106.602905,666.750183 1107.187378,666.169739   C1112.512939,660.879578 1118.947998,656.228577 1122.770264,649.988892   C1136.363770,627.798035 1150.182251,605.615845 1161.759155,582.357056   C1172.294434,561.190674 1180.666138,538.863342 1188.822144,516.618958   C1198.139404,491.207855 1206.269287,465.357300 1214.710327,439.630524   C1219.554321,424.866791 1223.991943,409.969696 1228.942383,394.073730   C1229.921143,395.567902 1230.729858,396.426483 1231.114624,397.445160   C1239.563110,419.807465 1247.861572,442.290222 1260.150024,462.878113   C1266.422974,473.387726 1273.531982,483.611908 1281.604004,492.785370   C1294.501465,507.443024 1310.773315,517.708618 1328.383057,526.295593   C1344.423218,534.117310 1360.848755,534.279419 1377.581299,531.603333   C1392.985718,529.139771 1407.638672,523.840820 1422.210449,518.169678   C1439.095581,511.598206 1450.886108,495.091522 1450.939819,477.221619   C1450.963623,469.303528 1449.917480,461.373657 1450.104736,453.466827   C1450.341675,443.456451 1451.008301,433.427551 1452.104004,423.474274   C1453.203979,413.482483 1455.315186,411.059723 1464.672852,409.255280   C1471.543335,407.930450 1478.650391,406.962006 1485.610352,407.178040   C1495.714844,407.491699 1505.792969,408.919342 1515.861328,410.056274   C1523.292480,410.895447 1530.707642,411.917511 1538.099609,413.054932   C1552.677368,415.298065 1567.214966,417.808929 1581.806152,419.957336   C1592.429810,421.521606 1603.079346,423.219208 1613.777954,423.888763   C1627.662354,424.757721 1641.630493,425.313110 1655.519165,424.807312   C1669.886353,424.284027 1684.214722,422.455322 1698.532593,420.938141   C1704.315552,420.325409 1710.025635,419.024719 1716.661743,418.002686  M1381.494385,979.000000   C1386.289795,979.000000 1391.085083,979.000000 1396.031250,979.000000   C1410.561646,899.864990 1425.018921,821.128357 1439.524780,742.126953   C1426.420044,742.126953 1414.456299,742.126953 1401.917969,742.126953   C1397.607544,771.495850 1393.198853,800.811035 1389.026978,830.159912   C1384.864014,859.445435 1380.938477,888.764648 1376.789917,918.933655   C1366.455933,859.121643 1356.334839,800.541870 1346.220337,742.000061   C1335.939087,742.000061 1326.611450,742.127136 1317.291138,741.922119   C1314.514648,741.861084 1313.417725,743.029419 1313.023193,745.385193   C1310.990723,757.520691 1309.195190,769.699768 1306.936646,781.792603   C1302.430054,805.921936 1297.448242,829.963989 1293.091064,854.119385   C1289.152100,875.956421 1285.783936,897.896423 1281.996826,920.802307   C1281.160034,919.005310 1280.287354,917.808777 1280.071899,916.503723   C1279.776978,914.717957 1280.159302,912.828247 1279.941772,911.020325   C1278.678101,900.514526 1277.250244,890.028259 1276.021606,879.518555   C1274.903076,869.951538 1274.191162,860.332642 1272.890381,850.792419   C1271.511963,840.682251 1269.528564,830.655945 1268.031982,820.559937   C1266.221069,808.343445 1264.704468,796.083618 1262.947144,783.858826   C1261.377930,772.941650 1259.457031,762.071899 1258.059814,751.134094   C1256.896851,742.030273 1257.134033,742.000000 1247.861572,742.000000   C1237.595703,742.000000 1227.329712,742.000000 1216.449829,742.000000   C1230.797241,821.417419 1245.016968,900.128296 1259.221191,978.753296   C1271.998779,978.753296 1284.439209,978.753296 1296.618042,978.753296   C1307.104614,924.009583 1320.400879,870.096313 1328.303467,814.930542   C1334.934814,870.178894 1347.218384,924.302368 1357.096313,979.000000   C1365.192871,979.000000 1372.844360,979.000000 1381.494385,979.000000  M628.940674,970.577820   C637.136963,966.002563 644.443237,960.384277 650.030579,952.719482   C656.914917,943.275513 660.662292,932.844299 662.250793,921.147888   C663.812073,909.651978 662.976074,898.594543 659.279541,887.911743   C652.941711,869.595703 639.624390,858.253906 620.630249,852.404846   C622.487793,851.430847 623.869934,850.697449 625.259583,849.978638   C638.671265,843.041382 647.700012,832.265930 652.406128,818.042725   C655.862061,807.597961 655.751953,796.835022 654.031799,786.021057   C652.550842,776.710754 648.830872,768.424744 642.755432,761.327698   C630.745911,747.298584 614.326721,741.986633 596.880554,741.295532   C579.607910,740.611267 562.226440,742.101501 544.919250,743.098389   C536.030579,743.610352 536.000000,744.127563 536.000000,752.989136   C536.000000,825.968811 536.000000,898.948486 536.000000,971.928162   C536.000000,973.748596 536.000000,975.569092 536.000000,978.030884   C541.519836,978.695190 546.928101,979.743958 552.363647,979.913330   C562.184753,980.219360 572.025391,979.839294 581.852051,980.036377   C598.000488,980.360291 613.432800,977.257568 628.940674,970.577820  M1699.000000,950.500000   C1699.000000,959.628967 1699.000000,968.757935 1699.000000,977.950195   C1704.260010,978.672424 1709.089478,979.916199 1713.913208,979.893494   C1731.175293,979.812256 1748.550537,981.431030 1765.584595,977.000488   C1789.788330,970.705139 1807.405029,955.997864 1818.401978,933.917175   C1829.051758,912.533386 1832.180298,889.200745 1832.898193,865.592346   C1833.183838,856.198486 1832.329834,846.770203 1832.000854,837.357361   C1831.431152,821.049377 1828.116089,805.408936 1822.130859,790.141418   C1810.197754,759.701172 1785.685913,743.183594 1755.215088,741.289062   C1739.497192,740.311768 1723.575928,742.078613 1707.778931,743.102905   C1699.005981,743.671753 1699.000000,744.174377 1699.000000,753.124390   C1699.000000,818.582947 1699.000000,884.041443 1699.000000,950.500000  M863.000000,930.500000   C863.000000,946.261353 863.000000,962.022644 863.000000,977.713257   C875.643616,977.713257 887.714600,977.713257 900.167603,977.713257   C900.167603,945.020752 900.167603,912.613281 900.167603,879.571655   C904.489929,880.083008 908.348633,880.755066 912.231995,880.958252   C923.471313,881.546204 929.965271,887.940186 934.057068,897.842651   C939.628357,911.325439 940.033936,925.855103 943.028259,939.855957   C945.552612,951.659241 948.242554,963.429626 951.112732,975.152527   C951.399170,976.322510 953.434692,977.855957 954.680786,977.876648   C966.974609,978.080383 979.273193,977.999756 990.246765,977.999756   C985.166321,953.126892 980.447815,928.119385 974.814026,903.319702   C972.325745,892.366394 968.481201,881.506104 959.849060,873.487122   C956.646240,870.511841 952.652588,868.387878 948.768250,865.701843   C964.710022,857.529114 976.101990,845.580627 981.283020,828.286987   C985.430603,814.443054 985.187927,800.316833 982.572510,786.416260   C979.812927,771.749817 971.793274,759.849304 959.114807,751.744995   C948.004150,744.642944 935.282532,741.422363 922.345581,741.224304   C905.697510,740.969360 889.019348,742.224243 872.364746,743.045044   C863.496704,743.482117 863.000000,744.231323 863.000000,753.040344   C863.000000,811.860229 863.000000,870.680115 863.000000,930.500000  M1668.960449,964.686340   C1664.640381,944.683533 1660.436768,924.654602 1655.956421,904.687805   C1653.321655,892.946167 1649.512329,881.588745 1640.405029,873.070374   C1637.348145,870.211060 1633.451172,868.249695 1629.690552,865.710632   C1645.834961,857.522949 1657.180908,845.472412 1662.334595,828.188782   C1666.457642,814.361633 1665.902710,800.281006 1663.603394,786.284180   C1661.798950,775.300537 1656.208740,765.792480 1648.434204,758.213745   C1636.172119,746.260498 1620.202637,741.776184 1603.699097,741.262878   C1586.904419,740.740479 1570.036377,742.191040 1553.215210,743.059570   C1544.379517,743.515747 1544.000000,744.223572 1544.000000,753.193848   C1544.000000,826.356384 1544.000000,899.518982 1544.000000,972.681519   C1544.000000,974.428711 1544.000000,976.175903 1544.000000,977.643311   C1556.782471,977.643311 1568.857300,977.643311 1581.313477,977.643311   C1581.313477,944.878296 1581.313477,912.469421 1581.313477,879.550598   C1585.656128,880.069153 1589.539795,880.738342 1593.448975,880.960754   C1604.482544,881.588684 1610.996582,887.899536 1615.007202,897.580139   C1620.648071,911.195557 1621.107300,925.898804 1624.044556,940.082703   C1626.492432,951.903625 1629.274902,963.657104 1632.091797,975.396667   C1632.339722,976.430054 1633.932739,977.872925 1634.917725,977.886230   C1647.457764,978.055359 1660.000732,977.997620 1672.626709,977.997620   C1671.330566,973.545471 1670.163940,969.537842 1668.960449,964.686340  M2405.000000,813.341675   C2404.666260,804.933960 2404.868408,796.462219 2403.871338,788.133850   C2402.440674,776.181519 2396.451172,765.962097 2388.026611,757.803711   C2376.266357,746.415039 2360.859375,741.939270 2345.121826,741.311951   C2327.680176,740.616577 2310.122314,742.055664 2292.664551,743.275635   C2289.676025,743.484558 2283.850830,741.834290 2283.871826,749.259155   C2284.082275,824.245239 2283.998779,899.232239 2284.013184,974.218933   C2284.013428,975.470947 2284.207031,976.723022 2284.296875,977.808350   C2296.686523,977.808350 2308.639648,977.808350 2321.158691,977.808350   C2321.158691,945.099670 2321.158691,912.578125 2321.158691,879.530579   C2325.675537,880.069763 2329.559082,880.735229 2333.468262,880.961426   C2344.497070,881.599731 2350.997803,887.913818 2355.010498,897.594360   C2360.653809,911.209473 2361.093262,925.913452 2364.042725,940.092468   C2366.500732,951.909851 2369.274902,963.663208 2372.091797,975.401062   C2372.339600,976.433411 2373.935547,977.873169 2374.921631,977.886475   C2387.460449,978.055420 2400.001953,977.997681 2411.251221,977.997681   C2406.139893,953.052795 2401.413574,928.214661 2395.837646,903.568787   C2393.280518,892.264587 2389.341064,881.121521 2380.315918,872.962952   C2377.223633,870.167603 2373.380859,868.202209 2369.718994,865.749023   C2390.883301,854.729309 2402.866699,837.866882 2405.000000,813.341675  M699.573730,742.000000   C697.469055,742.000000 695.364380,742.000000 693.549072,742.000000   C693.196350,742.661560 693.057922,742.799683 693.058716,742.936951   C693.366089,798.830505 693.453186,854.727051 694.217590,910.614441   C694.350708,920.345032 696.467041,930.290283 699.196777,939.692322   C704.585938,958.254272 715.774963,972.221558 734.864563,978.341614   C747.807800,982.491150 761.193909,982.114258 774.285828,979.717468   C787.395813,977.317261 798.157715,969.912781 805.862854,959.151184   C817.001831,943.593750 821.582703,925.391235 821.791626,906.698364   C822.385620,853.561340 822.000000,800.413269 822.000000,747.269592   C822.000000,745.646790 822.000000,744.024048 822.000000,742.203857   C809.213196,742.203857 796.811951,742.203857 784.000000,742.203857   C784.000000,744.150391 784.000000,745.942505 784.000000,747.734558   C784.000000,800.545044 784.170776,853.356628 783.848511,906.165161   C783.787842,916.107727 782.060120,925.998779 777.441589,935.269287   C772.770142,944.646240 764.142761,948.310974 757.250549,947.826111   C747.460327,947.137207 740.866943,941.548157 736.904053,932.342224   C731.867798,920.642578 731.315125,908.199341 731.197693,895.991455   C730.721741,846.517395 731.000000,797.036133 731.000000,747.557495   C731.000000,745.787903 731.000000,744.018250 731.000000,742.000000   C720.497864,742.000000 710.529175,742.000000 699.573730,742.000000  M427.392578,745.957214   C426.893433,745.979431 426.331635,745.858032 425.904205,746.044617   C406.533386,754.502441 392.249817,768.538452 382.068024,786.793701   C372.152435,804.571655 367.383545,824.142334 366.303192,844.133179   C365.169617,865.109497 364.766571,886.287598 369.948090,907.064331   C374.831879,926.647217 381.920715,944.905151 396.799622,959.395447   C409.261353,971.531677 424.366180,978.272888 441.229370,979.752075   C459.696869,981.371826 478.203033,979.996887 496.072449,974.018250   C499.536621,972.859192 501.158417,971.431580 501.132874,967.231506   C500.904877,929.745667 501.000000,892.257874 501.000000,854.770691   C501.000000,853.314453 501.000000,851.858215 501.000000,850.366821   C480.427521,850.366821 460.242554,850.366821 440.367828,850.366821   C440.367828,860.808350 440.367828,870.881653 440.367828,881.161194   C449.022034,881.161194 457.309021,881.161194 465.999023,881.161194   C465.999023,902.159607 466.042725,922.938416 465.876068,943.715576   C465.867310,944.807617 464.086151,946.807007 463.108582,946.820374   C456.685425,946.908875 450.049072,947.516846 443.872559,946.168091   C431.114014,943.381775 423.063354,934.214966 417.054810,923.221802   C407.774597,906.242859 406.103973,887.441406 405.132904,868.685669   C404.301697,852.631653 406.067291,836.649902 410.040710,821.024902   C413.312408,808.159424 418.640045,795.889282 428.680878,787.163025   C446.930450,771.302673 467.766205,770.494507 490.119110,779.620789   C492.617676,768.708740 495.168396,757.568848 497.914337,745.576355   C489.692993,743.699585 481.661377,740.763977 473.474274,740.234863   C458.134033,739.243469 442.641235,739.124939 427.392578,745.957214  M1106.273193,980.000061   C1116.225464,977.989319 1126.183350,976.006287 1136.126953,973.953430   C1139.765503,973.202209 1141.159302,971.321594 1141.133789,967.158752   C1140.905029,929.674377 1141.000000,892.187927 1141.000000,854.702148   C1141.000000,853.252197 1141.000000,851.802246 1141.000000,850.213196   C1120.499390,850.213196 1100.432983,850.213196 1080.213501,850.213196   C1080.213501,860.496155 1080.213501,870.565247 1080.213501,881.031250   C1088.826660,881.031250 1097.237793,881.031250 1105.998901,881.031250   C1105.998901,902.210693 1106.033936,922.994690 1105.892944,943.777405   C1105.885986,944.789185 1104.346924,946.648926 1103.501587,946.660339   C1096.932251,946.749634 1090.149658,947.462280 1083.829346,946.118225   C1071.038452,943.398254 1063.058350,934.157715 1057.042847,923.166382   C1047.748047,906.182922 1046.115356,887.380554 1045.133789,868.628601   C1044.293457,852.575134 1046.067139,836.590393 1050.048584,820.971863   C1053.325928,808.115417 1058.653809,795.833435 1068.717896,787.125061   C1086.988525,771.315491 1107.816528,770.464478 1130.126465,779.650757   C1132.625244,768.710083 1135.172852,757.555542 1137.700928,746.486206   C1119.727173,738.317688 1100.769043,737.934143 1082.273560,741.329346   C1055.017822,746.332642 1035.355591,762.882629 1022.001282,787.002808   C1012.121155,804.847961 1007.464905,824.380920 1006.314636,844.368103   C1005.341492,861.276306 1005.001648,878.357849 1007.840820,895.348145   C1010.680298,912.340088 1015.147095,928.610901 1024.089844,943.431213   C1034.912598,961.367310 1050.405396,973.585083 1070.928955,977.717651   C1082.091797,979.965393 1093.834717,979.333191 1106.273193,980.000061  M2142.002441,807.372070   C2142.000977,806.871887 2142.085693,806.353699 2141.985840,805.873962   C2137.501221,784.297607 2133.000000,762.724670 2128.495117,741.122559   C2113.733887,741.122559 2099.102295,741.122559 2084.085938,741.122559   C2066.572266,819.940430 2049.066406,898.722412 2031.489014,977.826721   C2044.530151,977.826721 2056.644287,977.826721 2069.001465,977.826721   C2073.190674,957.544678 2077.355957,937.379578 2081.565186,917.000000   C2095.371826,917.000000 2109.183105,917.103333 2122.990967,916.924438   C2126.275146,916.881836 2127.457031,917.931824 2128.080078,921.140747   C2131.583252,939.185364 2135.290039,957.191284 2139.111328,975.171387   C2139.347900,976.284424 2141.138672,977.857971 2142.229492,977.876770   C2153.697998,978.074524 2165.171143,977.999023 2177.121094,977.999023   C2176.875000,976.421021 2176.732666,975.184143 2176.484375,973.968872   C2173.999512,961.806152 2171.512207,949.643860 2168.996094,937.487549   C2165.761475,921.858948 2162.476562,906.240723 2159.255371,890.609436   C2155.479980,872.289429 2151.786865,853.952332 2147.984863,835.637878   C2146.085938,826.490540 2144.024902,817.376831 2142.002441,807.372070  M283.000000,788.507935   C283.000000,784.072693 283.000000,779.637512 283.000000,774.825073   C303.307465,774.825073 323.047150,774.825073 342.711090,774.825073   C342.711090,763.686462 342.711090,752.947876 342.711090,742.287720   C310.019562,742.287720 277.617767,742.287720 245.278580,742.287720   C245.278580,820.971985 245.278580,899.368164 245.278580,977.722839   C279.292786,977.722839 313.027649,977.722839 346.720306,977.722839   C346.720306,966.705200 346.720306,955.966919 346.720306,944.836609   C325.370880,944.836609 304.298279,944.836609 283.280640,944.836609   C283.280640,920.035278 283.280640,895.632507 283.280640,870.834229   C301.964783,870.834229 320.371521,870.834229 338.715454,870.834229   C338.715454,860.362000 338.715454,850.290100 338.715454,839.826416   C320.027374,839.826416 301.620636,839.826416 283.000000,839.826416   C283.000000,822.787842 283.000000,806.146301 283.000000,788.507935  M106.325508,850.027649   C103.423920,848.007263 100.443855,846.089783 97.635231,843.947510   C88.601921,837.057495 79.111664,830.649902 70.782249,822.986145   C62.286236,815.169189 61.067482,804.582825 63.823769,793.690125   C68.190788,776.431946 86.453369,770.564514 101.051537,773.642212   C108.440788,775.200134 115.562576,778.026611 122.945686,780.323181   C125.198891,769.953674 127.545143,759.155945 129.900177,748.317871   C129.284424,747.832764 128.831558,747.301819 128.256409,747.047974   C107.219170,737.763550 85.892609,737.073303 64.292793,744.963135   C33.203636,756.319214 22.151009,785.856262 25.257042,813.925110   C27.009771,829.764282 35.418316,843.284180 46.912285,854.089233   C55.862549,862.503174 66.184982,869.466675 75.969170,876.981628   C85.732643,884.480713 95.048851,892.319336 98.429947,904.905823   C101.732285,917.199219 99.955894,928.707520 90.637688,937.629333   C79.304314,948.480530 65.171417,948.736938 50.864159,945.313599   C43.285889,943.500366 35.944309,940.697876 28.419365,938.317749   C28.167500,938.743896 27.543203,939.382202 27.393400,940.117188   C25.555614,949.134094 23.756201,958.159119 22.021088,967.196350   C21.537603,969.714600 22.206690,971.728088 25.021767,972.508301   C33.965183,974.987305 42.784679,978.990356 51.861198,979.689453   C71.115593,981.172546 90.460670,980.708374 107.434135,969.133606   C117.684929,962.143188 125.782745,953.513855 131.183548,942.007568   C137.448975,928.659180 137.659012,914.708557 136.794434,900.704834   C136.264297,892.117920 133.104889,883.960388 128.870331,876.195740   C123.308197,865.996826 114.806870,858.527832 106.325508,850.027649  M1918.000000,850.500000   C1918.000000,892.924133 1918.000000,935.348206 1918.000000,977.716064   C1930.970093,977.716064 1943.374878,977.716064 1956.169800,977.716064   C1956.169800,943.697205 1956.169800,909.960571 1956.169800,875.830322   C1974.968750,875.830322 1993.375488,875.830322 2011.713501,875.830322   C2011.713501,865.357971 2011.713501,855.286011 2011.713501,844.822510   C1993.023315,844.822510 1974.616577,844.822510 1956.288208,844.822510   C1956.288208,821.353638 1956.288208,798.283875 1956.288208,774.819336   C1976.313232,774.819336 1996.052856,774.819336 2015.708252,774.819336   C2015.708252,763.680542 2015.708252,752.941895 2015.708252,742.290649   C1983.013794,742.290649 1950.611938,742.290649 1918.000000,742.290649   C1918.000000,778.220581 1918.000000,813.860291 1918.000000,850.500000  M2204.000000,792.500000   C2204.000000,854.257935 2204.000000,916.015869 2204.000000,977.713806   C2216.973389,977.713806 2229.378906,977.713806 2241.717041,977.713806   C2241.717041,899.027283 2241.717041,820.627197 2241.717041,742.286133   C2229.026611,742.286133 2216.621338,742.286133 2204.000000,742.286133   C2204.000000,758.880920 2204.000000,775.190430 2204.000000,792.500000  M1502.000000,899.500000   C1502.000000,847.074585 1502.000000,794.649170 1502.000000,742.287048   C1489.024780,742.287048 1476.619385,742.287048 1464.283936,742.287048   C1464.283936,820.974609 1464.283936,899.374878 1464.283936,977.712952   C1476.975220,977.712952 1489.380615,977.712952 1502.000000,977.712952   C1502.000000,951.784363 1502.000000,926.142151 1502.000000,899.500000  M204.000000,872.500000   C204.000000,829.073792 204.000000,785.647644 204.000000,742.288025   C191.022888,742.288025 178.617462,742.288025 166.284760,742.288025   C166.284760,820.976501 166.284760,899.376648 166.284760,977.712036   C178.976990,977.712036 191.382416,977.712036 204.000000,977.712036   C204.000000,942.783020 204.000000,908.141479 204.000000,872.500000  M2439.000000,863.706970   C2439.190918,878.058289 2439.381592,892.409607 2439.571777,906.730408   C2450.954590,906.730408 2461.365234,906.730408 2471.599854,906.730408   C2472.086426,902.055603 2472.783936,897.677429 2472.953857,893.278870   C2473.420898,881.199707 2473.728271,869.113281 2473.985596,857.027283   C2474.374268,838.778198 2474.680176,820.527283 2474.989990,802.276611   C2475.063477,797.945068 2474.876709,793.606140 2475.044678,789.279724   C2475.651855,773.657043 2476.359375,758.038208 2477.038086,742.204224   C2462.884766,742.204224 2449.141846,742.204224 2434.673096,742.204224   C2435.131592,746.795532 2435.789551,751.134033 2435.957275,755.491394   C2436.415283,767.404297 2436.740479,779.323669 2436.983398,791.243286   C2437.378906,810.658752 2437.620361,830.077454 2438.034912,849.492493   C2438.129639,853.916321 2438.666504,858.330750 2439.000000,863.706970  M2468.465820,935.939697   C2456.239014,928.009888 2445.057129,933.217957 2439.713623,938.980103   C2431.335205,948.015442 2431.933838,968.225769 2441.458008,976.441101   C2449.416260,983.305481 2467.493652,982.525024 2473.703613,973.773865   C2480.345703,964.414001 2480.315674,943.443909 2468.465820,935.939697  z"/>
<path fill="#FFFFFF" opacity="1.000000" stroke="none" d=" M1716.215332,418.019897   C1710.025635,419.024719 1704.315552,420.325409 1698.532593,420.938141   C1684.214722,422.455322 1669.886353,424.284027 1655.519165,424.807312   C1641.630493,425.313110 1627.662354,424.757721 1613.777954,423.888763   C1603.079346,423.219208 1592.429810,421.521606 1581.806152,419.957336   C1567.214966,417.808929 1552.677368,415.298065 1538.099609,413.054932   C1530.707642,411.917511 1523.292480,410.895447 1515.861328,410.056274   C1505.792969,408.919342 1495.714844,407.491699 1485.610352,407.178040   C1478.650391,406.962006 1471.543335,407.930450 1464.672852,409.255280   C1455.315186,411.059723 1453.203979,413.482483 1452.104004,423.474274   C1451.008301,433.427551 1450.341675,443.456451 1450.104736,453.466827   C1449.917480,461.373657 1450.963623,469.303528 1450.939819,477.221619   C1450.886108,495.091522 1439.095581,511.598206 1422.210449,518.169678   C1407.638672,523.840820 1392.985718,529.139771 1377.581299,531.603333   C1360.848755,534.279419 1344.423218,534.117310 1328.383057,526.295593   C1310.773315,517.708618 1294.501465,507.443024 1281.604004,492.785370   C1273.531982,483.611908 1266.422974,473.387726 1260.150024,462.878113   C1247.861572,442.290222 1239.563110,419.807465 1231.114624,397.445160   C1230.729858,396.426483 1229.921143,395.567902 1228.942383,394.073730   C1223.991943,409.969696 1219.554321,424.866791 1214.710327,439.630524   C1206.269287,465.357300 1198.139404,491.207855 1188.822144,516.618958   C1180.666138,538.863342 1172.294434,561.190674 1161.759155,582.357056   C1150.182251,605.615845 1136.363770,627.798035 1122.770264,649.988892   C1118.947998,656.228577 1112.512939,660.879578 1107.187378,666.169739   C1106.602905,666.750183 1105.429932,666.963318 1104.528687,666.966064   C1089.182251,667.012939 1073.835815,666.999695 1058.673218,666.999695   C1073.587891,646.233398 1088.247925,626.528870 1102.130371,606.290894   C1115.627319,586.614685 1125.841309,565.117798 1135.408569,543.272156   C1148.935181,512.385742 1160.190552,480.692841 1170.060913,448.501556   C1177.583618,423.966461 1185.125854,399.408966 1191.553711,374.575226   C1196.879883,353.997345 1200.607178,333.004852 1205.014282,312.190002   C1209.356934,291.679840 1213.755005,271.180756 1217.952271,250.640762   C1220.474243,238.298508 1222.807739,225.912170 1224.884399,213.488571   C1225.367920,210.595520 1226.520264,210.241745 1229.014282,209.917877   C1240.280518,208.454956 1251.504150,206.667755 1262.753174,205.067825   C1265.641357,204.657059 1268.565796,204.502975 1272.090332,204.173294   C1271.722778,207.661926 1271.363647,211.169724 1270.982300,214.675079   C1269.659180,226.840012 1267.826416,238.974854 1267.115967,251.175201   C1266.010864,270.154114 1264.837402,289.193878 1265.216797,308.177429   C1265.658813,330.282166 1268.094727,352.411774 1275.371582,373.428680   C1281.179932,390.205017 1288.448853,406.493042 1295.455078,422.832489   C1302.756958,439.861511 1311.477783,456.121826 1321.806885,471.593597   C1335.128418,491.547424 1352.707031,504.403687 1376.728027,508.089050   C1384.595947,509.296143 1392.295288,510.195862 1399.481689,505.964050   C1401.275513,504.907684 1403.611816,502.880249 1403.712646,501.181213   C1404.073975,495.095825 1403.837891,488.940186 1403.368164,482.846558   C1401.672852,460.855194 1398.819214,438.769867 1412.961914,419.134094   C1421.706909,406.992615 1433.505127,399.705017 1448.041504,397.064056   C1466.038086,393.794464 1484.145752,391.139709 1502.159180,387.957977   C1520.426392,384.731384 1538.863525,385.604309 1557.160400,386.293762   C1570.703125,386.804138 1584.168823,389.857697 1597.623413,392.055664   C1610.709351,394.193420 1623.767578,396.529694 1636.783691,399.058289   C1654.048462,402.412201 1671.458374,405.076447 1689.011108,403.822235   C1706.892944,402.544464 1725.010986,400.971039 1741.638306,393.557770   C1753.362671,388.330536 1760.927612,378.480469 1765.993530,366.756531   C1774.649658,346.724121 1778.393921,325.271790 1783.951416,304.352478   C1789.048462,285.166382 1801.810669,272.757507 1818.198853,262.864746   C1828.414917,256.697754 1839.329834,252.040817 1850.817749,250.454803   C1861.507568,248.978928 1872.631592,250.378769 1883.545776,250.900360   C1889.551514,251.187393 1895.501099,252.565903 1901.507690,252.932495   C1911.076660,253.516479 1920.727661,254.455215 1930.240845,253.783127   C1940.195068,253.079880 1950.042358,250.729233 1959.884766,248.831223   C1960.667358,248.680252 1961.761108,246.277222 1961.508667,245.203369   C1957.829224,229.552277 1953.275635,214.076157 1950.285400,198.301468   C1946.858276,180.221878 1944.623657,161.845322 1946.103027,143.381073   C1947.447998,126.594978 1953.918945,111.335274 1964.432373,98.447777   C1977.352417,82.610168 1984.822632,64.166008 1991.501099,45.452305   C1995.116943,35.320000 2001.478760,30.959570 2011.020630,28.992491   C2018.426147,27.465818 2025.977905,26.239182 2033.068726,23.750856   C2037.258301,22.280687 2038.101440,23.930786 2039.430176,26.846355   C2044.888306,38.823368 2050.040527,50.964973 2056.079346,62.645752   C2063.160156,76.341370 2071.556152,89.365829 2078.445312,103.149330   C2086.176270,118.617371 2094.105957,134.241623 2096.834473,151.540741   C2098.938232,164.877701 2094.852783,177.684891 2090.976807,190.345062   C2088.582764,198.164169 2085.774170,205.917526 2084.190674,213.906311   C2082.620361,221.828354 2086.940918,228.359329 2091.756592,234.188187   C2103.271729,248.125916 2118.718750,253.926178 2136.286865,254.985382   C2148.618408,255.728882 2160.957520,256.351105 2173.294922,256.995422   C2186.465332,257.683258 2199.664062,258.013733 2212.803711,259.075500   C2232.184326,260.641571 2251.348389,263.255798 2268.804688,272.937469   C2282.337646,280.443237 2294.809082,289.313263 2306.271484,299.712952   C2324.119873,315.906403 2337.332764,335.914642 2351.926758,354.774078   C2363.820801,370.144287 2375.277832,385.852417 2386.922119,401.415833   C2401.772461,421.264740 2416.813721,440.974884 2431.407715,461.010712   C2446.342041,481.513611 2461.324463,502.010742 2475.410400,523.095337   C2498.225586,557.246826 2520.332275,591.872131 2542.725586,626.305664   C2560.547119,653.709106 2577.879883,681.445435 2596.298340,708.441528   C2613.063721,733.014526 2630.757812,756.968445 2648.513428,780.845215   C2658.031738,793.645386 2668.329346,805.888672 2678.658691,818.057556   C2692.133057,833.931152 2705.757812,849.690247 2719.746826,865.109680   C2732.313721,878.961243 2744.988525,892.777283 2758.461670,905.729004   C2778.344238,924.842163 2799.152588,942.954468 2822.450684,957.953613   C2849.802979,975.562927 2878.196777,991.022949 2908.914795,1002.150940   C2925.308350,1008.089783 2942.020508,1012.512207 2959.049316,1015.902039   C2963.201416,1016.728638 2967.527832,1016.734436 2971.781738,1016.982605   C2978.692871,1017.385925 2985.610596,1017.677734 2992.846191,1018.776611   C2987.597656,1021.175964 2982.493896,1023.990479 2977.068848,1025.884033   C2967.249023,1029.311646 2957.369141,1032.738647 2947.272705,1035.158813   C2934.645752,1038.185669 2921.809082,1038.844238 2908.741211,1037.152222   C2890.759277,1034.823608 2874.377197,1027.858276 2857.997803,1020.896912   C2845.886230,1015.749207 2833.981689,1010.033813 2822.309326,1003.949097   C2799.976074,992.306824 2779.107422,978.315430 2758.834717,963.389221   C2731.907227,943.563232 2707.988037,920.418213 2685.004639,896.308838   C2672.909180,883.620728 2661.604736,870.155273 2650.318848,856.724915   C2636.687012,840.502930 2623.188232,824.154175 2610.125244,807.473755   C2598.044922,792.048035 2586.303467,776.333801 2574.969482,760.351868   C2555.081299,732.308289 2535.186523,704.251648 2516.091309,675.668335   C2494.266602,643.000305 2473.627441,609.541504 2451.886719,576.815857   C2431.174316,545.638550 2410.089844,514.691467 2388.463623,484.142548   C2366.310059,452.849060 2343.515381,422.001068 2320.579834,391.272644   C2308.229736,374.726166 2295.028564,358.813477 2282.144775,342.667969   C2277.464600,336.802826 2272.899902,330.795074 2267.714111,325.398651   C2263.076904,320.573181 2257.810303,316.306305 2252.547363,312.138947   C2244.414795,305.699036 2236.288330,299.201172 2227.718994,293.375732   C2217.615479,286.507751 2206.232910,282.402252 2194.062256,281.068390   C2184.770996,280.050110 2175.417725,279.511627 2166.077881,279.041412   C2155.834717,278.525757 2145.543213,278.730896 2135.329346,277.914551   C2116.025146,276.371582 2096.463135,276.968445 2077.646484,271.050415   C2066.651367,267.592438 2056.575439,262.463135 2047.292236,255.710922   C2041.638672,251.598740 2037.622681,237.099930 2039.317627,229.170914   C2042.723145,213.240677 2045.426270,197.153931 2049.093994,181.287735   C2053.647461,161.588440 2045.975220,145.007019 2036.925293,128.605881   C2030.628784,117.194557 2024.328979,105.784966 2018.036621,94.371330   C2016.876587,92.267456 2015.744995,90.147964 2014.419189,87.701187   C2013.416992,88.475517 2012.322266,88.978783 2011.729858,89.831177   C2004.181519,100.690689 1997.629517,112.065323 1993.078613,124.570198   C1989.674438,133.924179 1991.232910,143.390488 1992.170654,152.728790   C1993.155396,162.532959 1995.109863,172.262604 1997.051636,181.942352   C1999.998779,196.634460 2003.207642,211.276276 2006.492676,225.897369   C2008.040527,232.787262 2010.025391,239.578903 2011.810059,246.415665   C2012.577148,249.354401 2011.116333,250.791336 2008.601196,252.120605   C1991.731445,261.036652 1974.330200,268.429077 1955.241211,270.979462   C1948.443359,271.887695 1941.594238,272.766083 1934.751587,272.922577   C1911.337158,273.457916 1887.915894,273.810364 1864.495972,273.898590   C1858.667358,273.920563 1852.846069,272.538391 1847.000122,272.062378   C1836.924072,271.241943 1831.284668,273.836975 1829.022339,288.133240   C1825.114624,312.826782 1819.975586,337.242981 1811.917969,360.933746   C1805.820923,378.859680 1794.117432,392.245911 1777.250732,400.964386   C1762.101318,408.795258 1745.696167,412.685822 1729.123901,415.978394   C1724.998657,416.797974 1720.817261,417.335510 1716.215332,418.019897  z"/>
<path fill="#FFFFFF" opacity="1.000000" stroke="none" d=" M1380.995117,979.000000   C1372.844360,979.000000 1365.192871,979.000000 1357.096313,979.000000   C1347.218384,924.302368 1334.934814,870.178894 1328.303467,814.930542   C1320.400879,870.096313 1307.104614,924.009583 1296.618042,978.753296   C1284.439209,978.753296 1271.998779,978.753296 1259.221191,978.753296   C1245.016968,900.128296 1230.797241,821.417419 1216.449829,742.000000   C1227.329712,742.000000 1237.595703,742.000000 1247.861572,742.000000   C1257.134033,742.000000 1256.896851,742.030273 1258.059814,751.134094   C1259.457031,762.071899 1261.377930,772.941650 1262.947144,783.858826   C1264.704468,796.083618 1266.221069,808.343445 1268.031982,820.559937   C1269.528564,830.655945 1271.511963,840.682251 1272.890381,850.792419   C1274.191162,860.332642 1274.903076,869.951538 1276.021606,879.518555   C1277.250244,890.028259 1278.678101,900.514526 1279.941772,911.020325   C1280.159302,912.828247 1279.776978,914.717957 1280.071899,916.503723   C1280.287354,917.808777 1281.160034,919.005310 1281.996826,920.802307   C1285.783936,897.896423 1289.152100,875.956421 1293.091064,854.119385   C1297.448242,829.963989 1302.430054,805.921936 1306.936646,781.792603   C1309.195190,769.699768 1310.990723,757.520691 1313.023193,745.385193   C1313.417725,743.029419 1314.514648,741.861084 1317.291138,741.922119   C1326.611450,742.127136 1335.939087,742.000061 1346.220337,742.000061   C1356.334839,800.541870 1366.455933,859.121643 1376.789917,918.933655   C1380.938477,888.764648 1384.864014,859.445435 1389.026978,830.159912   C1393.198853,800.811035 1397.607544,771.495850 1401.917969,742.126953   C1414.456299,742.126953 1426.420044,742.126953 1439.524780,742.126953   C1425.018921,821.128357 1410.561646,899.864990 1396.031250,979.000000   C1391.085083,979.000000 1386.289795,979.000000 1380.995117,979.000000  z"/>
<path fill="#FFFFFF" opacity="1.000000" stroke="none" d=" M628.604065,970.775879   C613.432800,977.257568 598.000488,980.360291 581.852051,980.036377   C572.025391,979.839294 562.184753,980.219360 552.363647,979.913330   C546.928101,979.743958 541.519836,978.695190 536.000000,978.030884   C536.000000,975.569092 536.000000,973.748596 536.000000,971.928162   C536.000000,898.948486 536.000000,825.968811 536.000000,752.989136   C536.000000,744.127563 536.030579,743.610352 544.919250,743.098389   C562.226440,742.101501 579.607910,740.611267 596.880554,741.295532   C614.326721,741.986633 630.745911,747.298584 642.755432,761.327698   C648.830872,768.424744 652.550842,776.710754 654.031799,786.021057   C655.751953,796.835022 655.862061,807.597961 652.406128,818.042725   C647.700012,832.265930 638.671265,843.041382 625.259583,849.978638   C623.869934,850.697449 622.487793,851.430847 620.630249,852.404846   C639.624390,858.253906 652.941711,869.595703 659.279541,887.911743   C662.976074,898.594543 663.812073,909.651978 662.250793,921.147888   C660.662292,932.844299 656.914917,943.275513 650.030579,952.719482   C644.443237,960.384277 637.136963,966.002563 628.604065,970.775879  M573.000000,889.500183   C573.000000,907.997925 573.108826,926.496887 572.914001,944.992554   C572.871765,948.995544 574.083069,950.361023 578.046875,950.067810   C582.165344,949.763184 586.367371,950.385986 590.456238,949.924194   C600.815918,948.754272 609.781067,944.773743 616.013855,935.914307   C622.206970,927.111328 623.760742,917.366882 623.150146,906.746887   C622.582764,896.879883 619.337219,888.345337 612.714172,881.357544   C601.930542,869.980103 587.686401,869.178650 573.000000,868.992004   C573.000000,875.879700 573.000000,882.190063 573.000000,889.500183  M608.567017,828.956482   C616.352539,819.212769 619.055969,807.943787 616.776489,795.958740   C615.679932,790.193176 613.284729,784.021667 609.641602,779.519775   C599.976440,767.576355 586.514282,769.308411 573.352234,770.921448   C573.352234,794.584900 573.352234,817.759888 573.352234,840.934448   C586.589111,841.421021 598.774109,839.818726 608.567017,828.956482  z"/>
<path fill="#FFFFFF" opacity="1.000000" stroke="none" d=" M1699.000000,950.000000   C1699.000000,884.041443 1699.000000,818.582947 1699.000000,753.124390   C1699.000000,744.174377 1699.005981,743.671753 1707.778931,743.102905   C1723.575928,742.078613 1739.497192,740.311768 1755.215088,741.289062   C1785.685913,743.183594 1810.197754,759.701172 1822.130859,790.141418   C1828.116089,805.408936 1831.431152,821.049377 1832.000854,837.357361   C1832.329834,846.770203 1833.183838,856.198486 1832.898193,865.592346   C1832.180298,889.200745 1829.051758,912.533386 1818.401978,933.917175   C1807.405029,955.997864 1789.788330,970.705139 1765.584595,977.000488   C1748.550537,981.431030 1731.175293,979.812256 1713.913208,979.893494   C1709.089478,979.916199 1704.260010,978.672424 1699.000000,977.950195   C1699.000000,968.757935 1699.000000,959.628967 1699.000000,950.000000  M1792.998047,835.811890   C1792.666138,834.561401 1792.086792,833.319885 1792.041138,832.059021   C1791.642944,821.112854 1789.019653,810.669189 1784.986206,800.555542   C1780.689941,789.783630 1774.522217,780.606567 1763.693359,775.223083   C1756.800537,771.796448 1749.528564,772.059448 1742.166992,771.890259   C1737.561646,771.784485 1735.863159,772.811218 1735.880737,777.885620   C1736.071533,833.039978 1736.000000,888.195312 1736.000000,943.350342   C1736.000000,944.821655 1736.000000,946.293030 1736.000000,948.115112   C1750.569946,950.903564 1762.813843,946.793518 1772.635376,936.641296   C1780.833008,928.167542 1785.444092,917.373047 1787.904175,905.910156   C1789.736328,897.373352 1790.942505,888.677368 1791.958618,879.997437   C1792.948853,871.537048 1793.633301,863.016052 1793.899902,854.504333   C1794.084717,848.604980 1793.333252,842.676208 1792.998047,835.811890  z"/>
<path fill="#FFFFFF" opacity="1.000000" stroke="none" d=" M863.000000,930.000000   C863.000000,870.680115 863.000000,811.860229 863.000000,753.040344   C863.000000,744.231323 863.496704,743.482117 872.364746,743.045044   C889.019348,742.224243 905.697510,740.969360 922.345581,741.224304   C935.282532,741.422363 948.004150,744.642944 959.114807,751.744995   C971.793274,759.849304 979.812927,771.749817 982.572510,786.416260   C985.187927,800.316833 985.430603,814.443054 981.283020,828.286987   C976.101990,845.580627 964.710022,857.529114 948.768250,865.701843   C952.652588,868.387878 956.646240,870.511841 959.849060,873.487122   C968.481201,881.506104 972.325745,892.366394 974.814026,903.319702   C980.447815,928.119385 985.166321,953.126892 990.246765,977.999756   C979.273193,977.999756 966.974609,978.080383 954.680786,977.876648   C953.434692,977.855957 951.399170,976.322510 951.112732,975.152527   C948.242554,963.429626 945.552612,951.659241 943.028259,939.855957   C940.033936,925.855103 939.628357,911.325439 934.057068,897.842651   C929.965271,887.940186 923.471313,881.546204 912.231995,880.958252   C908.348633,880.755066 904.489929,880.083008 900.167603,879.571655   C900.167603,912.613281 900.167603,945.020752 900.167603,977.713257   C887.714600,977.713257 875.643616,977.713257 863.000000,977.713257   C863.000000,962.022644 863.000000,946.261353 863.000000,930.000000  M939.042908,783.565552   C932.811096,772.634583 916.049805,768.083191 900.223877,772.502319   C900.223877,798.549316 900.223877,824.604065 900.223877,851.413818   C905.673340,850.926880 910.887085,850.715027 916.018982,849.952515   C928.934326,848.033386 937.570984,840.238098 941.846191,828.414856   C947.222595,813.546082 947.022766,798.515503 939.042908,783.565552  z"/>
<path fill="#FFFFFF" opacity="1.000000" stroke="none" d=" M1668.978882,965.108276   C1670.163940,969.537842 1671.330566,973.545471 1672.626709,977.997620   C1660.000732,977.997620 1647.457764,978.055359 1634.917725,977.886230   C1633.932739,977.872925 1632.339722,976.430054 1632.091797,975.396667   C1629.274902,963.657104 1626.492432,951.903625 1624.044556,940.082703   C1621.107300,925.898804 1620.648071,911.195557 1615.007202,897.580139   C1610.996582,887.899536 1604.482544,881.588684 1593.448975,880.960754   C1589.539795,880.738342 1585.656128,880.069153 1581.313477,879.550598   C1581.313477,912.469421 1581.313477,944.878296 1581.313477,977.643311   C1568.857300,977.643311 1556.782471,977.643311 1544.000000,977.643311   C1544.000000,976.175903 1544.000000,974.428711 1544.000000,972.681519   C1544.000000,899.518982 1544.000000,826.356384 1544.000000,753.193848   C1544.000000,744.223572 1544.379517,743.515747 1553.215210,743.059570   C1570.036377,742.191040 1586.904419,740.740479 1603.699097,741.262878   C1620.202637,741.776184 1636.172119,746.260498 1648.434204,758.213745   C1656.208740,765.792480 1661.798950,775.300537 1663.603394,786.284180   C1665.902710,800.281006 1666.457642,814.361633 1662.334595,828.188782   C1657.180908,845.472412 1645.834961,857.522949 1629.690552,865.710632   C1633.451172,868.249695 1637.348145,870.211060 1640.405029,873.070374   C1649.512329,881.588745 1653.321655,892.946167 1655.956421,904.687805   C1660.436768,924.654602 1664.640381,944.683533 1668.978882,965.108276  M1581.000000,822.500000   C1581.000000,831.931458 1581.000000,841.362854 1581.000000,851.460510   C1586.818604,850.936951 1592.060791,850.734253 1597.214355,849.948425   C1609.947754,848.006836 1617.908569,839.999756 1622.962891,828.714355   C1627.060913,819.563843 1626.745239,809.738159 1625.817627,800.175537   C1624.937378,791.101440 1621.761719,782.698608 1613.722900,776.926880   C1603.584106,769.647339 1592.558716,770.234314 1581.000000,772.060242   C1581.000000,788.872070 1581.000000,805.186035 1581.000000,822.500000  z"/>
<path fill="#FFFFFF" opacity="1.000000" stroke="none" d=" M2405.000000,813.819397   C2402.866699,837.866882 2390.883301,854.729309 2369.718994,865.749023   C2373.380859,868.202209 2377.223633,870.167603 2380.315918,872.962952   C2389.341064,881.121521 2393.280518,892.264587 2395.837646,903.568787   C2401.413574,928.214661 2406.139893,953.052795 2411.251221,977.997681   C2400.001953,977.997681 2387.460449,978.055420 2374.921631,977.886475   C2373.935547,977.873169 2372.339600,976.433411 2372.091797,975.401062   C2369.274902,963.663208 2366.500732,951.909851 2364.042725,940.092468   C2361.093262,925.913452 2360.653809,911.209473 2355.010498,897.594360   C2350.997803,887.913818 2344.497070,881.599731 2333.468262,880.961426   C2329.559082,880.735229 2325.675537,880.069763 2321.158691,879.530579   C2321.158691,912.578125 2321.158691,945.099670 2321.158691,977.808350   C2308.639648,977.808350 2296.686523,977.808350 2284.296875,977.808350   C2284.207031,976.723022 2284.013428,975.470947 2284.013184,974.218933   C2283.998779,899.232239 2284.082275,824.245239 2283.871826,749.259155   C2283.850830,741.834290 2289.676025,743.484558 2292.664551,743.275635   C2310.122314,742.055664 2327.680176,740.616577 2345.121826,741.311951   C2360.859375,741.939270 2376.266357,746.415039 2388.026611,757.803711   C2396.451172,765.962097 2402.440674,776.181519 2403.871338,788.133850   C2404.868408,796.462219 2404.666260,804.933960 2405.000000,813.819397  M2321.720459,850.940613   C2324.052979,850.960388 2326.385742,850.984497 2328.718262,850.999329   C2342.089111,851.084106 2352.793213,845.890198 2359.936279,834.463379   C2367.271240,822.729187 2367.036133,809.870422 2365.074219,796.696594   C2361.718750,774.162964 2340.410645,766.889954 2321.054932,772.785889   C2321.054932,798.595520 2321.054932,824.420471 2321.720459,850.940613  z"/>
<path fill="#FFFFFF" opacity="1.000000" stroke="none" d=" M700.067078,742.000000   C710.529175,742.000000 720.497864,742.000000 731.000000,742.000000   C731.000000,744.018250 731.000000,745.787903 731.000000,747.557495   C731.000000,797.036133 730.721741,846.517395 731.197693,895.991455   C731.315125,908.199341 731.867798,920.642578 736.904053,932.342224   C740.866943,941.548157 747.460327,947.137207 757.250549,947.826111   C764.142761,948.310974 772.770142,944.646240 777.441589,935.269287   C782.060120,925.998779 783.787842,916.107727 783.848511,906.165161   C784.170776,853.356628 784.000000,800.545044 784.000000,747.734558   C784.000000,745.942505 784.000000,744.150391 784.000000,742.203857   C796.811951,742.203857 809.213196,742.203857 822.000000,742.203857   C822.000000,744.024048 822.000000,745.646790 822.000000,747.269592   C822.000000,800.413269 822.385620,853.561340 821.791626,906.698364   C821.582703,925.391235 817.001831,943.593750 805.862854,959.151184   C798.157715,969.912781 787.395813,977.317261 774.285828,979.717468   C761.193909,982.114258 747.807800,982.491150 734.864563,978.341614   C715.774963,972.221558 704.585938,958.254272 699.196777,939.692322   C696.467041,930.290283 694.350708,920.345032 694.217590,910.614441   C693.453186,854.727051 693.366089,798.830505 693.058716,742.936951   C693.057922,742.799683 693.196350,742.661560 693.549072,742.000000   C695.364380,742.000000 697.469055,742.000000 700.067078,742.000000  z"/>
<path fill="#FFFFFF" opacity="1.000000" stroke="none" d=" M427.711548,745.708496   C442.641235,739.124939 458.134033,739.243469 473.474274,740.234863   C481.661377,740.763977 489.692993,743.699585 497.914337,745.576355   C495.168396,757.568848 492.617676,768.708740 490.119110,779.620789   C467.766205,770.494507 446.930450,771.302673 428.680878,787.163025   C418.640045,795.889282 413.312408,808.159424 410.040710,821.024902   C406.067291,836.649902 404.301697,852.631653 405.132904,868.685669   C406.103973,887.441406 407.774597,906.242859 417.054810,923.221802   C423.063354,934.214966 431.114014,943.381775 443.872559,946.168091   C450.049072,947.516846 456.685425,946.908875 463.108582,946.820374   C464.086151,946.807007 465.867310,944.807617 465.876068,943.715576   C466.042725,922.938416 465.999023,902.159607 465.999023,881.161194   C457.309021,881.161194 449.022034,881.161194 440.367828,881.161194   C440.367828,870.881653 440.367828,860.808350 440.367828,850.366821   C460.242554,850.366821 480.427521,850.366821 501.000000,850.366821   C501.000000,851.858215 501.000000,853.314453 501.000000,854.770691   C501.000000,892.257874 500.904877,929.745667 501.132874,967.231506   C501.158417,971.431580 499.536621,972.859192 496.072449,974.018250   C478.203033,979.996887 459.696869,981.371826 441.229370,979.752075   C424.366180,978.272888 409.261353,971.531677 396.799622,959.395447   C381.920715,944.905151 374.831879,926.647217 369.948090,907.064331   C364.766571,886.287598 365.169617,865.109497 366.303192,844.133179   C367.383545,824.142334 372.152435,804.571655 382.068024,786.793701   C392.249817,768.538452 406.533386,754.502441 425.904205,746.044617   C426.331635,745.858032 426.893433,745.979431 427.711548,745.708496  z"/>
<path fill="#FFFFFF" opacity="1.000000" stroke="none" d=" M1105.794556,980.000000   C1093.834717,979.333191 1082.091797,979.965393 1070.928955,977.717651   C1050.405396,973.585083 1034.912598,961.367310 1024.089844,943.431213   C1015.147095,928.610901 1010.680298,912.340088 1007.840820,895.348145   C1005.001648,878.357849 1005.341492,861.276306 1006.314636,844.368103   C1007.464905,824.380920 1012.121155,804.847961 1022.001282,787.002808   C1035.355591,762.882629 1055.017822,746.332642 1082.273560,741.329346   C1100.769043,737.934143 1119.727173,738.317688 1137.700928,746.486206   C1135.172852,757.555542 1132.625244,768.710083 1130.126465,779.650757   C1107.816528,770.464478 1086.988525,771.315491 1068.717896,787.125061   C1058.653809,795.833435 1053.325928,808.115417 1050.048584,820.971863   C1046.067139,836.590393 1044.293457,852.575134 1045.133789,868.628601   C1046.115356,887.380554 1047.748047,906.182922 1057.042847,923.166382   C1063.058350,934.157715 1071.038452,943.398254 1083.829346,946.118225   C1090.149658,947.462280 1096.932251,946.749634 1103.501587,946.660339   C1104.346924,946.648926 1105.885986,944.789185 1105.892944,943.777405   C1106.033936,922.994690 1105.998901,902.210693 1105.998901,881.031250   C1097.237793,881.031250 1088.826660,881.031250 1080.213501,881.031250   C1080.213501,870.565247 1080.213501,860.496155 1080.213501,850.213196   C1100.432983,850.213196 1120.499390,850.213196 1141.000000,850.213196   C1141.000000,851.802246 1141.000000,853.252197 1141.000000,854.702148   C1141.000000,892.187927 1140.905029,929.674377 1141.133789,967.158752   C1141.159302,971.321594 1139.765503,973.202209 1136.126953,973.953430   C1126.183350,976.006287 1116.225464,977.989319 1105.794556,980.000000  z"/>
<path fill="#FFFFFF" opacity="1.000000" stroke="none" d=" M2142.019531,807.810059   C2144.024902,817.376831 2146.085938,826.490540 2147.984863,835.637878   C2151.786865,853.952332 2155.479980,872.289429 2159.255371,890.609436   C2162.476562,906.240723 2165.761475,921.858948 2168.996094,937.487549   C2171.512207,949.643860 2173.999512,961.806152 2176.484375,973.968872   C2176.732666,975.184143 2176.875000,976.421021 2177.121094,977.999023   C2165.171143,977.999023 2153.697998,978.074524 2142.229492,977.876770   C2141.138672,977.857971 2139.347900,976.284424 2139.111328,975.171387   C2135.290039,957.191284 2131.583252,939.185364 2128.080078,921.140747   C2127.457031,917.931824 2126.275146,916.881836 2122.990967,916.924438   C2109.183105,917.103333 2095.371826,917.000000 2081.565186,917.000000   C2077.355957,937.379578 2073.190674,957.544678 2069.001465,977.826721   C2056.644287,977.826721 2044.530151,977.826721 2031.489014,977.826721   C2049.066406,898.722412 2066.572266,819.940430 2084.085938,741.122559   C2099.102295,741.122559 2113.733887,741.122559 2128.495117,741.122559   C2133.000000,762.724670 2137.501221,784.297607 2141.985840,805.873962   C2142.085693,806.353699 2142.000977,806.871887 2142.019531,807.810059  M2121.961426,878.730225   C2121.643799,877.984985 2121.171387,877.267456 2121.032471,876.490295   C2119.069336,865.516235 2117.076904,854.546570 2115.242432,843.550659   C2113.085205,830.618347 2111.109131,817.655823 2108.984131,804.717957   C2108.060303,799.095032 2106.961670,793.500793 2105.942383,787.893555   C2105.376221,787.894714 2104.810303,787.895874 2104.244141,787.897034   C2098.191650,821.134644 2092.139404,854.372253 2086.047363,887.827148   C2098.412354,887.827148 2110.511230,887.827148 2123.155273,887.827148   C2122.748047,884.939148 2122.372559,882.277954 2121.961426,878.730225  z"/>
<path fill="#FFFFFF" opacity="1.000000" stroke="none" d=" M283.000000,789.006348   C283.000000,806.146301 283.000000,822.787842 283.000000,839.826416   C301.620636,839.826416 320.027374,839.826416 338.715454,839.826416   C338.715454,850.290100 338.715454,860.362000 338.715454,870.834229   C320.371521,870.834229 301.964783,870.834229 283.280640,870.834229   C283.280640,895.632507 283.280640,920.035278 283.280640,944.836609   C304.298279,944.836609 325.370880,944.836609 346.720306,944.836609   C346.720306,955.966919 346.720306,966.705200 346.720306,977.722839   C313.027649,977.722839 279.292786,977.722839 245.278580,977.722839   C245.278580,899.368164 245.278580,820.971985 245.278580,742.287720   C277.617767,742.287720 310.019562,742.287720 342.711090,742.287720   C342.711090,752.947876 342.711090,763.686462 342.711090,774.825073   C323.047150,774.825073 303.307465,774.825073 283.000000,774.825073   C283.000000,779.637512 283.000000,784.072693 283.000000,789.006348  z"/>
<path fill="#FFFFFF" opacity="1.000000" stroke="none" d=" M106.631546,850.223022   C114.806870,858.527832 123.308197,865.996826 128.870331,876.195740   C133.104889,883.960388 136.264297,892.117920 136.794434,900.704834   C137.659012,914.708557 137.448975,928.659180 131.183548,942.007568   C125.782745,953.513855 117.684929,962.143188 107.434135,969.133606   C90.460670,980.708374 71.115593,981.172546 51.861198,979.689453   C42.784679,978.990356 33.965183,974.987305 25.021767,972.508301   C22.206690,971.728088 21.537603,969.714600 22.021088,967.196350   C23.756201,958.159119 25.555614,949.134094 27.393400,940.117188   C27.543203,939.382202 28.167500,938.743896 28.419365,938.317749   C35.944309,940.697876 43.285889,943.500366 50.864159,945.313599   C65.171417,948.736938 79.304314,948.480530 90.637688,937.629333   C99.955894,928.707520 101.732285,917.199219 98.429947,904.905823   C95.048851,892.319336 85.732643,884.480713 75.969170,876.981628   C66.184982,869.466675 55.862549,862.503174 46.912285,854.089233   C35.418316,843.284180 27.009771,829.764282 25.257042,813.925110   C22.151009,785.856262 33.203636,756.319214 64.292793,744.963135   C85.892609,737.073303 107.219170,737.763550 128.256409,747.047974   C128.831558,747.301819 129.284424,747.832764 129.900177,748.317871   C127.545143,759.155945 125.198891,769.953674 122.945686,780.323181   C115.562576,778.026611 108.440788,775.200134 101.051537,773.642212   C86.453369,770.564514 68.190788,776.431946 63.823769,793.690125   C61.067482,804.582825 62.286236,815.169189 70.782249,822.986145   C79.111664,830.649902 88.601921,837.057495 97.635231,843.947510   C100.443855,846.089783 103.423920,848.007263 106.631546,850.223022  z"/>
<path fill="#FFFFFF" opacity="1.000000" stroke="none" d=" M1918.000000,850.000000   C1918.000000,813.860291 1918.000000,778.220581 1918.000000,742.290649   C1950.611938,742.290649 1983.013794,742.290649 2015.708252,742.290649   C2015.708252,752.941895 2015.708252,763.680542 2015.708252,774.819336   C1996.052856,774.819336 1976.313232,774.819336 1956.288208,774.819336   C1956.288208,798.283875 1956.288208,821.353638 1956.288208,844.822510   C1974.616577,844.822510 1993.023315,844.822510 2011.713501,844.822510   C2011.713501,855.286011 2011.713501,865.357971 2011.713501,875.830322   C1993.375488,875.830322 1974.968750,875.830322 1956.169800,875.830322   C1956.169800,909.960571 1956.169800,943.697205 1956.169800,977.716064   C1943.374878,977.716064 1930.970093,977.716064 1918.000000,977.716064   C1918.000000,935.348206 1918.000000,892.924133 1918.000000,850.000000  z"/>
<path fill="#FFFFFF" opacity="1.000000" stroke="none" d=" M2204.000000,792.000000   C2204.000000,775.190430 2204.000000,758.880920 2204.000000,742.286133   C2216.621338,742.286133 2229.026611,742.286133 2241.717041,742.286133   C2241.717041,820.627197 2241.717041,899.027283 2241.717041,977.713806   C2229.378906,977.713806 2216.973389,977.713806 2204.000000,977.713806   C2204.000000,916.015869 2204.000000,854.257935 2204.000000,792.000000  z"/>
<path fill="#FFFFFF" opacity="1.000000" stroke="none" d=" M1502.000000,900.000000   C1502.000000,926.142151 1502.000000,951.784363 1502.000000,977.712952   C1489.380615,977.712952 1476.975220,977.712952 1464.283936,977.712952   C1464.283936,899.374878 1464.283936,820.974609 1464.283936,742.287048   C1476.619385,742.287048 1489.024780,742.287048 1502.000000,742.287048   C1502.000000,794.649170 1502.000000,847.074585 1502.000000,900.000000  z"/>
<path fill="#FFFFFF" opacity="1.000000" stroke="none" d=" M204.000000,873.000000   C204.000000,908.141479 204.000000,942.783020 204.000000,977.712036   C191.382416,977.712036 178.976990,977.712036 166.284760,977.712036   C166.284760,899.376648 166.284760,820.976501 166.284760,742.288025   C178.617462,742.288025 191.022888,742.288025 204.000000,742.288025   C204.000000,785.647644 204.000000,829.073792 204.000000,873.000000  z"/>
<path fill="#FFFFFF" opacity="1.000000" stroke="none" d=" M2439.000000,863.228271   C2438.666504,858.330750 2438.129639,853.916321 2438.034912,849.492493   C2437.620361,830.077454 2437.378906,810.658752 2436.983398,791.243286   C2436.740479,779.323669 2436.415283,767.404297 2435.957275,755.491394   C2435.789551,751.134033 2435.131592,746.795532 2434.673096,742.204224   C2449.141846,742.204224 2462.884766,742.204224 2477.038086,742.204224   C2476.359375,758.038208 2475.651855,773.657043 2475.044678,789.279724   C2474.876709,793.606140 2475.063477,797.945068 2474.989990,802.276611   C2474.680176,820.527283 2474.374268,838.778198 2473.985596,857.027283   C2473.728271,869.113281 2473.420898,881.199707 2472.953857,893.278870   C2472.783936,897.677429 2472.086426,902.055603 2471.599854,906.730408   C2461.365234,906.730408 2450.954590,906.730408 2439.571777,906.730408   C2439.381592,892.409607 2439.190918,878.058289 2439.000000,863.228271  z"/>
<path fill="#FFFFFF" opacity="1.000000" stroke="none" d=" M2468.844727,935.980469   C2480.315674,943.443909 2480.345703,964.414001 2473.703613,973.773865   C2467.493652,982.525024 2449.416260,983.305481 2441.458008,976.441101   C2431.933838,968.225769 2431.335205,948.015442 2439.713623,938.980103   C2445.057129,933.217957 2456.239014,928.009888 2468.844727,935.980469  z"/>
<path fill="none" opacity="1.000000" stroke="none" d=" M573.000000,889.000244   C573.000000,882.190063 573.000000,875.879700 573.000000,868.992004   C587.686401,869.178650 601.930542,869.980103 612.714172,881.357544   C619.337219,888.345337 622.582764,896.879883 623.150146,906.746887   C623.760742,917.366882 622.206970,927.111328 616.013855,935.914307   C609.781067,944.773743 600.815918,948.754272 590.456238,949.924194   C586.367371,950.385986 582.165344,949.763184 578.046875,950.067810   C574.083069,950.361023 572.871765,948.995544 572.914001,944.992554   C573.108826,926.496887 573.000000,907.997925 573.000000,889.000244  z"/>
<path fill="none" opacity="1.000000" stroke="none" d=" M608.298035,829.205017   C598.774109,839.818726 586.589111,841.421021 573.352234,840.934448   C573.352234,817.759888 573.352234,794.584900 573.352234,770.921448   C586.514282,769.308411 599.976440,767.576355 609.641602,779.519775   C613.284729,784.021667 615.679932,790.193176 616.776489,795.958740   C619.055969,807.943787 616.352539,819.212769 608.298035,829.205017  z"/>
<path fill="none" opacity="1.000000" stroke="none" d=" M1792.999023,836.286255   C1793.333252,842.676208 1794.084717,848.604980 1793.899902,854.504333   C1793.633301,863.016052 1792.948853,871.537048 1791.958618,879.997437   C1790.942505,888.677368 1789.736328,897.373352 1787.904175,905.910156   C1785.444092,917.373047 1780.833008,928.167542 1772.635376,936.641296   C1762.813843,946.793518 1750.569946,950.903564 1736.000000,948.115112   C1736.000000,946.293030 1736.000000,944.821655 1736.000000,943.350342   C1736.000000,888.195312 1736.071533,833.039978 1735.880737,777.885620   C1735.863159,772.811218 1737.561646,771.784485 1742.166992,771.890259   C1749.528564,772.059448 1756.800537,771.796448 1763.693359,775.223083   C1774.522217,780.606567 1780.689941,789.783630 1784.986206,800.555542   C1789.019653,810.669189 1791.642944,821.112854 1792.041138,832.059021   C1792.086792,833.319885 1792.666138,834.561401 1792.999023,836.286255  z"/>
<path fill="none" opacity="1.000000" stroke="none" d=" M939.319397,783.820862   C947.022766,798.515503 947.222595,813.546082 941.846191,828.414856   C937.570984,840.238098 928.934326,848.033386 916.018982,849.952515   C910.887085,850.715027 905.673340,850.926880 900.223877,851.413818   C900.223877,824.604065 900.223877,798.549316 900.223877,772.502319   C916.049805,768.083191 932.811096,772.634583 939.319397,783.820862  z"/>
<path fill="none" opacity="1.000000" stroke="none" d=" M1581.000000,822.000000   C1581.000000,805.186035 1581.000000,788.872070 1581.000000,772.060242   C1592.558716,770.234314 1603.584106,769.647339 1613.722900,776.926880   C1621.761719,782.698608 1624.937378,791.101440 1625.817627,800.175537   C1626.745239,809.738159 1627.060913,819.563843 1622.962891,828.714355   C1617.908569,839.999756 1609.947754,848.006836 1597.214355,849.948425   C1592.060791,850.734253 1586.818604,850.936951 1581.000000,851.460510   C1581.000000,841.362854 1581.000000,831.931458 1581.000000,822.000000  z"/>
<path fill="none" opacity="1.000000" stroke="none" d=" M2321.387695,850.593018   C2321.054932,824.420471 2321.054932,798.595520 2321.054932,772.785889   C2340.410645,766.889954 2361.718750,774.162964 2365.074219,796.696594   C2367.036133,809.870422 2367.271240,822.729187 2359.936279,834.463379   C2352.793213,845.890198 2342.089111,851.084106 2328.718262,850.999329   C2326.385742,850.984497 2324.052979,850.960388 2321.387695,850.593018  z"/>
<path fill="none" opacity="1.000000" stroke="none" d=" M2121.979492,879.173462   C2122.372559,882.277954 2122.748047,884.939148 2123.155273,887.827148   C2110.511230,887.827148 2098.412354,887.827148 2086.047363,887.827148   C2092.139404,854.372253 2098.191650,821.134644 2104.244141,787.897034   C2104.810303,787.895874 2105.376221,787.894714 2105.942383,787.893555   C2106.961670,793.500793 2108.060303,799.095032 2108.984131,804.717957   C2111.109131,817.655823 2113.085205,830.618347 2115.242432,843.550659   C2117.076904,854.546570 2119.069336,865.516235 2121.032471,876.490295   C2121.171387,877.267456 2121.643799,877.984985 2121.979492,879.173462  z"/>
</svg>
